<?xml version="1.0" standalone="no"?>
<svg xmlns:xlink="http://www.w3.org/1999/xlink" id="wave" style="transform:rotate(180deg); transition: 0.3s" viewBox="0 0 1440 240" version="1.1" xmlns="http://www.w3.org/2000/svg"><defs><linearGradient id="sw-gradient-0" x1="0" x2="0" y1="1" y2="0"><stop stop-color="rgba(0, 216.75, 255, 1)" offset="0%"/><stop stop-color="rgba(55, 174, 195, 1)" offset="100%"/></linearGradient></defs><path style="transform:translate(0, 0px); opacity:1" fill="url(#sw-gradient-0)" d="M0,144L24,128C48,112,96,80,144,88C192,96,240,144,288,160C336,176,384,160,432,148C480,136,528,128,576,120C624,112,672,104,720,116C768,128,816,160,864,176C912,192,960,192,1008,164C1056,136,1104,80,1152,76C1200,72,1248,120,1296,116C1344,112,1392,56,1440,44C1488,32,1536,64,1584,76C1632,88,1680,80,1728,84C1776,88,1824,104,1872,120C1920,136,1968,152,2016,140C2064,128,2112,88,2160,60C2208,32,2256,16,2304,40C2352,64,2400,128,2448,140C2496,152,2544,112,2592,104C2640,96,2688,120,2736,128C2784,136,2832,128,2880,120C2928,112,2976,104,3024,108C3072,112,3120,128,3168,136C3216,144,3264,144,3312,128C3360,112,3408,80,3432,64L3456,48L3456,240L3432,240C3408,240,3360,240,3312,240C3264,240,3216,240,3168,240C3120,240,3072,240,3024,240C2976,240,2928,240,2880,240C2832,240,2784,240,2736,240C2688,240,2640,240,2592,240C2544,240,2496,240,2448,240C2400,240,2352,240,2304,240C2256,240,2208,240,2160,240C2112,240,2064,240,2016,240C1968,240,1920,240,1872,240C1824,240,1776,240,1728,240C1680,240,1632,240,1584,240C1536,240,1488,240,1440,240C1392,240,1344,240,1296,240C1248,240,1200,240,1152,240C1104,240,1056,240,1008,240C960,240,912,240,864,240C816,240,768,240,720,240C672,240,624,240,576,240C528,240,480,240,432,240C384,240,336,240,288,240C240,240,192,240,144,240C96,240,48,240,24,240L0,240Z"/><defs><linearGradient id="sw-gradient-1" x1="0" x2="0" y1="1" y2="0"><stop stop-color="rgba(55, 174, 195, 1)" offset="0%"/><stop stop-color="rgba(0, 216.75, 255, 1)" offset="100%"/></linearGradient></defs><path style="transform:translate(0, 50px); opacity:0.9" fill="url(#sw-gradient-1)" d="M0,96L24,84C48,72,96,48,144,32C192,16,240,8,288,36C336,64,384,128,432,144C480,160,528,128,576,104C624,80,672,64,720,48C768,32,816,16,864,32C912,48,960,96,1008,120C1056,144,1104,144,1152,144C1200,144,1248,144,1296,124C1344,104,1392,64,1440,76C1488,88,1536,152,1584,180C1632,208,1680,200,1728,180C1776,160,1824,128,1872,132C1920,136,1968,176,2016,160C2064,144,2112,72,2160,64C2208,56,2256,112,2304,112C2352,112,2400,56,2448,44C2496,32,2544,64,2592,96C2640,128,2688,160,2736,156C2784,152,2832,112,2880,92C2928,72,2976,72,3024,84C3072,96,3120,120,3168,124C3216,128,3264,112,3312,104C3360,96,3408,96,3432,96L3456,96L3456,240L3432,240C3408,240,3360,240,3312,240C3264,240,3216,240,3168,240C3120,240,3072,240,3024,240C2976,240,2928,240,2880,240C2832,240,2784,240,2736,240C2688,240,2640,240,2592,240C2544,240,2496,240,2448,240C2400,240,2352,240,2304,240C2256,240,2208,240,2160,240C2112,240,2064,240,2016,240C1968,240,1920,240,1872,240C1824,240,1776,240,1728,240C1680,240,1632,240,1584,240C1536,240,1488,240,1440,240C1392,240,1344,240,1296,240C1248,240,1200,240,1152,240C1104,240,1056,240,1008,240C960,240,912,240,864,240C816,240,768,240,720,240C672,240,624,240,576,240C528,240,480,240,432,240C384,240,336,240,288,240C240,240,192,240,144,240C96,240,48,240,24,240L0,240Z"/></svg>